<svg id="visual" viewBox="0 0 900 600" width="900" height="600" xmlns="http://www.w3.org/2000/svg" xmlns:xlink="http://www.w3.org/1999/xlink" version="1.1"><rect x="0" y="0" width="900" height="600" fill="#001122"></rect><path d="M0 374L21.5 385C43 396 86 418 128.8 418.5C171.7 419 214.3 398 257.2 395.8C300 393.7 343 410.3 385.8 406.8C428.7 403.3 471.3 379.7 514.2 372.5C557 365.3 600 374.7 642.8 389.2C685.7 403.7 728.3 423.3 771.2 433.8C814 444.3 857 445.7 878.5 446.3L900 447L900 601L878.5 601C857 601 814 601 771.2 601C728.3 601 685.7 601 642.8 601C600 601 557 601 514.2 601C471.3 601 428.7 601 385.8 601C343 601 300 601 257.2 601C214.3 601 171.7 601 128.8 601C86 601 43 601 21.5 601L0 601Z" fill="#f869fa"></path><path d="M0 445L21.5 448.7C43 452.3 86 459.7 128.8 458C171.7 456.3 214.3 445.7 257.2 443.2C300 440.7 343 446.3 385.8 451.8C428.7 457.3 471.3 462.7 514.2 453C557 443.3 600 418.7 642.8 415.2C685.7 411.7 728.3 429.3 771.2 431.2C814 433 857 419 878.5 412L900 405L900 601L878.5 601C857 601 814 601 771.2 601C728.3 601 685.7 601 642.8 601C600 601 557 601 514.2 601C471.3 601 428.7 601 385.8 601C343 601 300 601 257.2 601C214.3 601 171.7 601 128.8 601C86 601 43 601 21.5 601L0 601Z" fill="#d756ee"></path><path d="M0 507L21.5 505.2C43 503.3 86 499.7 128.8 493.7C171.7 487.7 214.3 479.3 257.2 474.8C300 470.3 343 469.7 385.8 475.8C428.7 482 471.3 495 514.2 494.2C557 493.3 600 478.7 642.8 471.7C685.7 464.7 728.3 465.3 771.2 469.7C814 474 857 482 878.5 486L900 490L900 601L878.5 601C857 601 814 601 771.2 601C728.3 601 685.7 601 642.8 601C600 601 557 601 514.2 601C471.3 601 428.7 601 385.8 601C343 601 300 601 257.2 601C214.3 601 171.7 601 128.8 601C86 601 43 601 21.5 601L0 601Z" fill="#b544e1"></path><path d="M0 542L21.5 538.2C43 534.3 86 526.7 128.8 517.3C171.7 508 214.3 497 257.2 491.7C300 486.3 343 486.7 385.8 492.8C428.7 499 471.3 511 514.2 516.5C557 522 600 521 642.8 515.7C685.7 510.3 728.3 500.7 771.2 502.3C814 504 857 517 878.5 523.5L900 530L900 601L878.5 601C857 601 814 601 771.2 601C728.3 601 685.7 601 642.8 601C600 601 557 601 514.2 601C471.3 601 428.7 601 385.8 601C343 601 300 601 257.2 601C214.3 601 171.7 601 128.8 601C86 601 43 601 21.5 601L0 601Z" fill="#9233d4"></path><path d="M0 542L21.5 543.7C43 545.3 86 548.7 128.8 547.7C171.7 546.7 214.3 541.3 257.2 541C300 540.7 343 545.3 385.8 550C428.7 554.7 471.3 559.3 514.2 559.8C557 560.3 600 556.7 642.8 552.5C685.7 548.3 728.3 543.7 771.2 540.7C814 537.7 857 536.3 878.5 535.7L900 535L900 601L878.5 601C857 601 814 601 771.2 601C728.3 601 685.7 601 642.8 601C600 601 557 601 514.2 601C471.3 601 428.7 601 385.8 601C343 601 300 601 257.2 601C214.3 601 171.7 601 128.8 601C86 601 43 601 21.5 601L0 601Z" fill="#6b24c7"></path></svg>